<svg width="41" height="42" viewBox="0 0 41 42" fill="none" xmlns="http://www.w3.org/2000/svg">
<path fill-rule="evenodd" clip-rule="evenodd" d="M35.4094 0.5H5.59059C2.50858 0.5 0 3.00858 0 6.09059V35.9094C0 38.9914 2.50858 41.5 5.59059 41.5H35.4094C38.4932 41.5 41 38.9914 41 35.9094V6.09059C41 3.00858 38.4932 0.5 35.4094 0.5ZM18.7866 29.165C18.7866 30.4626 18.0538 31.6493 16.8913 32.2297L11.9313 34.7106V27.4031C11.9313 26.1055 12.6642 24.9171 13.8266 24.3367L18.7866 21.8576V29.165ZM29.0704 24.0231C29.0704 25.3207 28.3358 26.5074 27.1751 27.0895L22.2151 29.5687V12.835C22.2151 11.5374 22.9479 10.3507 24.1087 9.76857L29.0704 7.28945V24.0231Z" fill="#F44A49"/>
</svg>
