<svg width="29" height="36" viewBox="0 0 29 36" fill="none" xmlns="http://www.w3.org/2000/svg">
<path d="M23.6107 19.0731C23.6279 17.7413 23.9816 16.4355 24.6391 15.2771C25.2965 14.1188 26.2362 13.1455 27.3709 12.448C26.6501 11.4186 25.6992 10.5714 24.5937 9.97375C23.4882 9.37611 22.2586 9.04448 21.0025 9.00518C18.3231 8.72394 15.7256 10.6085 14.3602 10.6085C12.9684 10.6085 10.8662 9.0331 8.60243 9.07968C7.13818 9.12698 5.71115 9.55278 4.46039 10.3156C3.20963 11.0784 2.17778 12.1521 1.4654 13.4323C-1.62051 18.7751 0.681296 26.6271 3.63734 30.9458C5.11631 33.0606 6.8448 35.4228 9.1065 35.339C11.3197 35.2472 12.1463 33.9277 14.8178 33.9277C17.4646 33.9277 18.2401 35.339 20.5477 35.2858C22.9225 35.2472 24.4188 33.1616 25.8459 31.0268C26.9085 29.52 27.7262 27.8546 28.2687 26.0924C26.889 25.5089 25.7115 24.5321 24.8832 23.2838C24.0549 22.0356 23.6123 20.5711 23.6107 19.0731Z" fill="#AAADB3"/>
<path d="M19.2505 6.53841C20.5454 4.98396 21.1834 2.98597 21.0289 0.96875C19.0506 1.17653 17.2232 2.12202 15.9108 3.61684C15.2692 4.34709 14.7777 5.19665 14.4646 6.11695C14.1515 7.03725 14.0228 8.01024 14.0859 8.9803C15.0754 8.99049 16.0543 8.77602 16.9489 8.35304C17.8435 7.93007 18.6305 7.30962 19.2505 6.53841Z" fill="#AAADB3"/>
</svg>
