<svg width="28" height="28" viewBox="0 0 28 28" fill="none" xmlns="http://www.w3.org/2000/svg">
<path d="M15.0732 2.63667L22.6682 6.73167C23.5548 7.21 23.5548 8.575 22.6682 9.05333L15.0732 13.1483C14.3965 13.51 13.6032 13.51 12.9265 13.1483L5.3315 9.05333C4.44484 8.575 4.44484 7.21 5.3315 6.73167L12.9265 2.63667C13.6032 2.275 14.3965 2.275 15.0732 2.63667Z" stroke="#FF7348" stroke-width="2" stroke-linecap="round" stroke-linejoin="round"/>
<path d="M4.21183 11.8183L11.2702 15.3533C12.1452 15.7967 12.7052 16.695 12.7052 17.675V24.3483C12.7052 25.3167 11.6902 25.935 10.8268 25.5033L3.7685 21.9683C2.8935 21.525 2.3335 20.6267 2.3335 19.6467V12.9733C2.3335 12.005 3.3485 11.3867 4.21183 11.8183Z" stroke="#FF7348" stroke-width="2" stroke-linecap="round" stroke-linejoin="round"/>
<path d="M23.7883 11.8183L16.7299 15.3533C15.8549 15.7967 15.2949 16.695 15.2949 17.675V24.3483C15.2949 25.3167 16.3099 25.935 17.1733 25.5033L24.2316 21.9683C25.1066 21.525 25.6666 20.6267 25.6666 19.6467V12.9733C25.6666 12.005 24.6516 11.3867 23.7883 11.8183Z" stroke="#FF7348" stroke-width="2" stroke-linecap="round" stroke-linejoin="round"/>
</svg>
