<svg width="30" height="34" viewBox="0 0 30 34" fill="none" xmlns="http://www.w3.org/2000/svg">
<path fill-rule="evenodd" clip-rule="evenodd" d="M0.162371 1.89859L14.7852 17.4227L0.212275 32.5639C0.0752339 32.2268 0 31.82 0 31.3509V2.97992C0 2.57033 0.0570226 2.20823 0.162371 1.89859ZM22.6225 12.1638L17.5467 17.4375L22.2195 22.3983L28.4063 18.8524C29.2224 18.3848 29.6806 17.7814 29.7572 17.1669V17.1645C29.6806 16.5485 29.2224 15.9457 28.4063 15.478L22.6225 12.1638ZM20.433 23.4186L16.1581 18.8803L1.90626 33.688C2.32229 33.6723 2.78512 33.5317 3.27201 33.2533L20.433 23.4186ZM20.8359 11.1359L16.1738 15.9799L1.72023 0.635573C1.7549 0.633735 1.78994 0.632812 1.82533 0.632812C2.26239 0.632812 2.7532 0.773473 3.27185 1.07L20.8359 11.1359Z" fill="#AAADB3"/>
</svg>
