<svg width="200" height="200" viewBox="0 0 200 200" fill="none" xmlns="http://www.w3.org/2000/svg">
<g clip-path="url(#clip0_301_2247)">
<path d="M11.8496 157.728C4.56772 153.524 0.951366 148.005 1.00049 142.495C1.04896 137.059 4.66532 131.631 11.8496 127.483L36.8178 113.068L73.8069 91.712C88.2729 83.36 111.727 83.36 126.193 91.712L170.714 117.416L188.15 127.483C195.335 131.631 198.951 137.059 199 142.495C199.049 148.005 195.432 153.524 188.15 157.728L126.193 193.499C111.727 201.851 88.2729 201.851 73.8069 193.499L11.8496 157.728Z" fill="#C4C4C4"/>
<path d="M11.8496 157.728C4.56772 153.524 0.951366 148.005 1.00049 142.495C1.04896 137.059 4.66532 131.631 11.8496 127.483L36.8178 113.068L73.8069 91.712C88.2729 83.36 111.727 83.36 126.193 91.712L170.714 117.416L188.15 127.483C195.335 131.631 198.951 137.059 199 142.495C199.049 148.005 195.432 153.524 188.15 157.728L126.193 193.499C111.727 201.851 88.2729 201.851 73.8069 193.499L11.8496 157.728Z" fill="white"/>
<path d="M11.8496 157.728C4.56772 153.524 0.951366 148.005 1.00049 142.495C1.04896 137.059 4.66532 131.631 11.8496 127.483L36.8178 113.068L73.8069 91.712C88.2729 83.36 111.727 83.36 126.193 91.712L170.714 117.416L188.15 127.483C195.335 131.631 198.951 137.059 199 142.495C199.049 148.005 195.432 153.524 188.15 157.728L126.193 193.499C111.727 201.851 88.2729 201.851 73.8069 193.499L11.8496 157.728Z" fill="url(#paint0_linear_301_2247)" fill-opacity="0.3"/>
<path d="M1.00049 142.495C1.04896 137.059 4.66532 131.631 11.8496 127.483L36.8178 113.068L1.00049 125.345V142.495Z" fill="#C4C4C4"/>
<path d="M1.00049 142.495C1.04896 137.059 4.66532 131.631 11.8496 127.483L36.8178 113.068L1.00049 125.345V142.495Z" fill="white"/>
<path d="M1.00049 142.495C1.04896 137.059 4.66532 131.631 11.8496 127.483L36.8178 113.068L1.00049 125.345V142.495Z" fill="url(#paint1_linear_301_2247)" fill-opacity="0.3"/>
<path d="M188.15 127.483C195.335 131.631 198.951 137.059 199 142.495V125.345L170.714 117.416L188.15 127.483Z" fill="#C4C4C4"/>
<path d="M188.15 127.483C195.335 131.631 198.951 137.059 199 142.495V125.345L170.714 117.416L188.15 127.483Z" fill="white"/>
<path d="M188.15 127.483C195.335 131.631 198.951 137.059 199 142.495V125.345L170.714 117.416L188.15 127.483Z" fill="url(#paint2_linear_301_2247)" fill-opacity="0.3"/>
<path d="M11.8496 140.622C-2.61652 132.27 -2.61652 118.729 11.8496 110.377L73.8069 74.6058C88.2729 66.2538 111.727 66.2538 126.193 74.6058L188.15 110.377C202.617 118.729 202.617 132.27 188.15 140.622L126.193 176.393C111.727 184.745 88.2729 184.745 73.8069 176.393L11.8496 140.622Z" fill="#C4C4C4"/>
<path d="M11.8496 140.622C-2.61652 132.27 -2.61652 118.729 11.8496 110.377L73.8069 74.6058C88.2729 66.2538 111.727 66.2538 126.193 74.6058L188.15 110.377C202.617 118.729 202.617 132.27 188.15 140.622L126.193 176.393C111.727 184.745 88.2729 184.745 73.8069 176.393L11.8496 140.622Z" fill="white"/>
<path d="M11.8496 140.622C-2.61652 132.27 -2.61652 118.729 11.8496 110.377L73.8069 74.6058C88.2729 66.2538 111.727 66.2538 126.193 74.6058L188.15 110.377C202.617 118.729 202.617 132.27 188.15 140.622L126.193 176.393C111.727 184.745 88.2729 184.745 73.8069 176.393L11.8496 140.622Z" fill="url(#paint3_linear_301_2247)" fill-opacity="0.15"/>
<g filter="url(#filter0_f_301_2247)">
<rect width="68.4508" height="58.0602" rx="29.0301" transform="matrix(0.866025 -0.5 0.866025 0.5 48.8901 130.079)" fill="black" fill-opacity="0.12"/>
</g>
<rect width="39.4414" height="13.3729" transform="matrix(0.865775 0.500433 -0.865775 0.500433 106.273 17.0903)" fill="#E7C6C6"/>
<rect width="39.4414" height="13.3729" transform="matrix(0.865775 0.500433 -0.865775 0.500433 106.273 17.0903)" fill="url(#paint4_linear_301_2247)" fill-opacity="0.75"/>
<path d="M140.426 114.385L140.426 36.825L128.848 43.5172L128.848 121.077L140.426 114.385Z" fill="#E7C6C6"/>
<path d="M140.426 114.385L140.426 36.825L128.848 43.5172L128.848 121.077L140.426 114.385Z" fill="url(#paint5_linear_301_2247)" fill-opacity="0.75"/>
<path d="M124.844 118.615L128.859 121.046L128.851 43.552L94.7036 23.8142L94.7021 46.8126L124.832 64.0495L124.844 118.615Z" fill="#E7C6C6"/>
<path d="M124.844 118.615L128.859 121.046L128.851 43.552L94.7036 23.8142L94.7021 46.8126L124.832 64.0495L124.844 118.615Z" fill="url(#paint6_linear_301_2247)" fill-opacity="0.75"/>
<rect width="39.4414" height="13.3729" transform="matrix(0.865775 0.500433 -0.865775 0.500433 90.6768 44.2009)" fill="#E7C6C6"/>
<rect width="39.4414" height="13.3729" transform="matrix(0.865775 0.500433 -0.865775 0.500433 90.6768 44.2009)" fill="url(#paint7_linear_301_2247)" fill-opacity="0.75"/>
<path d="M124.825 123.454L124.825 63.8347L113.247 70.527L113.247 130.146L124.825 123.454Z" fill="#E7C6C6"/>
<path d="M124.825 123.454L124.825 63.8347L113.247 70.527L113.247 130.146L124.825 123.454Z" fill="url(#paint8_linear_301_2247)" fill-opacity="0.75"/>
<path d="M107.274 90.3356L107.271 126.608L113.247 130.078L113.249 70.5971L79.1021 50.8594L79.1023 74.0823L107.274 90.3356Z" fill="#E7C6C6"/>
<path d="M107.274 90.3356L107.271 126.608L113.247 130.078L113.249 70.5971L79.1021 50.8594L79.1023 74.0823L107.274 90.3356Z" fill="url(#paint9_linear_301_2247)" fill-opacity="0.75"/>
<rect width="39.4414" height="13.3729" transform="matrix(0.865775 0.500433 -0.865775 0.500433 73.1489 70.6316)" fill="#E7C6C6"/>
<rect width="39.4414" height="13.3729" transform="matrix(0.865775 0.500433 -0.865775 0.500433 73.1489 70.6316)" fill="url(#paint10_linear_301_2247)" fill-opacity="0.75"/>
<path d="M107.295 133.855L107.294 90.3718L95.7165 97.0641L95.7169 140.547L107.295 133.855Z" fill="#E7C6C6"/>
<path d="M107.295 133.855L107.294 90.3718L95.7165 97.0641L95.7169 140.547L107.295 133.855Z" fill="url(#paint11_linear_301_2247)" fill-opacity="0.75"/>
<path d="M61.5683 120.757L95.7156 140.494L95.723 97.06L61.5757 77.3223L61.5683 120.757Z" fill="#E7C6C6"/>
<path d="M61.5683 120.757L95.7156 140.494L95.723 97.06L61.5757 77.3223L61.5683 120.757Z" fill="url(#paint12_linear_301_2247)" fill-opacity="0.75"/>
<path d="M57.6937 60.7349L85.9907 15.0818M85.9907 15.0818L68.5825 25.144M85.9907 15.0818L85.9907 35.2063" stroke="#AAADB3" stroke-width="5.2279"/>
</g>
<defs>
<filter id="filter0_f_301_2247" x="42.7056" y="83.4444" width="121.931" height="88.0732" filterUnits="userSpaceOnUse" color-interpolation-filters="sRGB">
<feFlood flood-opacity="0" result="BackgroundImageFix"/>
<feBlend mode="normal" in="SourceGraphic" in2="BackgroundImageFix" result="shape"/>
<feGaussianBlur stdDeviation="10.4558" result="effect1_foregroundBlur_301_2247"/>
</filter>
<linearGradient id="paint0_linear_301_2247" x1="54.9091" y1="184.286" x2="93.94" y2="226.599" gradientUnits="userSpaceOnUse">
<stop stop-color="#CCD1D3" stop-opacity="0.36"/>
<stop offset="1" stop-color="#C3C6CA"/>
</linearGradient>
<linearGradient id="paint1_linear_301_2247" x1="54.9091" y1="184.286" x2="93.94" y2="226.599" gradientUnits="userSpaceOnUse">
<stop stop-color="#CCD1D3" stop-opacity="0.36"/>
<stop offset="1" stop-color="#C3C6CA"/>
</linearGradient>
<linearGradient id="paint2_linear_301_2247" x1="54.9091" y1="184.286" x2="93.94" y2="226.599" gradientUnits="userSpaceOnUse">
<stop stop-color="#CCD1D3" stop-opacity="0.36"/>
<stop offset="1" stop-color="#C3C6CA"/>
</linearGradient>
<linearGradient id="paint3_linear_301_2247" x1="1.86168" y1="109.935" x2="159.664" y2="19.7058" gradientUnits="userSpaceOnUse">
<stop stop-color="#BDC6CB" stop-opacity="0.36"/>
<stop offset="1" stop-color="#B7BEC8"/>
</linearGradient>
<linearGradient id="paint4_linear_301_2247" x1="3.53127" y1="-15.7502" x2="69.2282" y2="88.3379" gradientUnits="userSpaceOnUse">
<stop stop-color="#FFA877"/>
<stop offset="1" stop-color="#FF0707"/>
</linearGradient>
<linearGradient id="paint5_linear_301_2247" x1="141.494" y1="-23.0938" x2="138.742" y2="130.181" gradientUnits="userSpaceOnUse">
<stop stop-color="#FFA877"/>
<stop offset="1" stop-color="#FF0707"/>
</linearGradient>
<linearGradient id="paint6_linear_301_2247" x1="134.287" y1="-60.7273" x2="97.3554" y2="124.802" gradientUnits="userSpaceOnUse">
<stop stop-color="#FFA877"/>
<stop offset="1" stop-color="#FF0707"/>
</linearGradient>
<linearGradient id="paint7_linear_301_2247" x1="3.53127" y1="-15.7502" x2="69.2282" y2="88.3379" gradientUnits="userSpaceOnUse">
<stop stop-color="#FFA877"/>
<stop offset="1" stop-color="#FF0707"/>
</linearGradient>
<linearGradient id="paint8_linear_301_2247" x1="147.365" y1="-6.27975" x2="110.175" y2="172.873" gradientUnits="userSpaceOnUse">
<stop stop-color="#FFA877"/>
<stop offset="1" stop-color="#FF0707"/>
</linearGradient>
<linearGradient id="paint9_linear_301_2247" x1="111.334" y1="-8.68214" x2="99.3576" y2="135.292" gradientUnits="userSpaceOnUse">
<stop stop-color="#FFA877"/>
<stop offset="1" stop-color="#FF0707"/>
</linearGradient>
<linearGradient id="paint10_linear_301_2247" x1="3.53127" y1="-15.7502" x2="69.2282" y2="88.3379" gradientUnits="userSpaceOnUse">
<stop stop-color="#FFA877"/>
<stop offset="1" stop-color="#FF0707"/>
</linearGradient>
<linearGradient id="paint11_linear_301_2247" x1="118.807" y1="24.9486" x2="108.73" y2="163.682" gradientUnits="userSpaceOnUse">
<stop stop-color="#FFA877"/>
<stop offset="1" stop-color="#FF0707"/>
</linearGradient>
<linearGradient id="paint12_linear_301_2247" x1="106.797" y1="35.358" x2="84.5528" y2="144.48" gradientUnits="userSpaceOnUse">
<stop stop-color="#FFA877"/>
<stop offset="1" stop-color="#FF0707"/>
</linearGradient>
<clipPath id="clip0_301_2247">
<rect width="200" height="200" fill="white"/>
</clipPath>
</defs>
</svg>
