<svg width="28" height="28" viewBox="0 0 28 28" fill="none" xmlns="http://www.w3.org/2000/svg">
<path d="M19.4836 22.1433H8.5169C8.0269 22.1433 7.47857 21.7583 7.31523 21.2917L2.48523 7.78166C1.7969 5.84499 2.6019 5.24999 4.25857 6.43999L8.80857 9.69499C9.5669 10.22 10.4302 9.95166 10.7569 9.09999L12.8102 3.62833C13.4636 1.87833 14.5486 1.87833 15.2019 3.62833L17.2552 9.09999C17.5819 9.95166 18.4452 10.22 19.1919 9.69499L23.4619 6.64999C25.2819 5.34333 26.1569 6.00833 25.4102 8.11999L20.6969 21.315C20.5219 21.7583 19.9736 22.1433 19.4836 22.1433Z" stroke="#FF7348" stroke-width="1.5" stroke-linecap="round" stroke-linejoin="round"/>
<path d="M7.5835 25.6667H20.4168" stroke="#FF7348" stroke-width="1.5" stroke-linecap="round" stroke-linejoin="round"/>
<path d="M11.0835 16.3333H16.9168" stroke="#FF7348" stroke-width="1.5" stroke-linecap="round" stroke-linejoin="round"/>
</svg>
