<svg width="102" height="102" viewBox="0 0 102 102" fill="none" xmlns="http://www.w3.org/2000/svg">
<g clip-path="url(#clip0_31_1762)">
<rect x="1" y="1" width="100" height="100" fill="white"/>
<path d="M37 1H33V5H37V1Z" fill="black"/>
<path d="M49 1H45V5H49V1Z" fill="black"/>
<path d="M61 1H57V5H61V1Z" fill="black"/>
<path d="M69 1H65V5H69V1Z" fill="black"/>
<path d="M45 5H41V9H45V5Z" fill="black"/>
<path d="M57 5H53V9H57V5Z" fill="black"/>
<path d="M61 5H57V9H61V5Z" fill="black"/>
<path d="M69 5H65V9H69V5Z" fill="black"/>
<path d="M37 9H33V13H37V9Z" fill="black"/>
<path d="M45 9H41V13H45V9Z" fill="black"/>
<path d="M57 9H53V13H57V9Z" fill="black"/>
<path d="M57 13H53V17H57V13Z" fill="black"/>
<path d="M61 13H57V17H61V13Z" fill="black"/>
<path d="M65 13H61V17H65V13Z" fill="black"/>
<path d="M41 17H37V21H41V17Z" fill="black"/>
<path d="M45 17H41V21H45V17Z" fill="black"/>
<path d="M53 17H49V21H53V17Z" fill="black"/>
<path d="M57 17H53V21H57V17Z" fill="black"/>
<path d="M37 21H33V25H37V21Z" fill="black"/>
<path d="M45 21H41V25H45V21Z" fill="black"/>
<path d="M57 21H53V25H57V21Z" fill="black"/>
<path d="M37 25H33V29H37V25Z" fill="black"/>
<path d="M45 25H41V29H45V25Z" fill="black"/>
<path d="M53 25H49V29H53V25Z" fill="black"/>
<path d="M61 25H57V29H61V25Z" fill="black"/>
<path d="M69 25H65V29H69V25Z" fill="black"/>
<path d="M41 29H37V33H41V29Z" fill="black"/>
<path d="M45 29H41V33H45V29Z" fill="black"/>
<path d="M49 29H45V33H49V29Z" fill="black"/>
<path d="M69 29H65V33H69V29Z" fill="black"/>
<path d="M5 33H1V37H5V33Z" fill="black"/>
<path d="M13 33H9V37H13V33Z" fill="black"/>
<path d="M29 33H25V37H29V33Z" fill="black"/>
<path d="M33 33H29V37H33V33Z" fill="black"/>
<path d="M45 33H41V37H45V33Z" fill="black"/>
<path d="M65 33H61V37H65V33Z" fill="black"/>
<path d="M81 33H77V37H81V33Z" fill="black"/>
<path d="M93 33H89V37H93V33Z" fill="black"/>
<path d="M101 33H97V37H101V33Z" fill="black"/>
<path d="M5 37H1V41H5V37Z" fill="black"/>
<path d="M9 37H5V41H9V37Z" fill="black"/>
<path d="M17 37H13V41H17V37Z" fill="black"/>
<path d="M21 37H17V41H21V37Z" fill="black"/>
<path d="M33 37H29V41H33V37Z" fill="black"/>
<path d="M37 37H33V41H37V37Z" fill="black"/>
<path d="M41 37H37V41H41V37Z" fill="black"/>
<path d="M49 37H45V41H49V37Z" fill="black"/>
<path d="M61 37H57V41H61V37Z" fill="black"/>
<path d="M65 37H61V41H65V37Z" fill="black"/>
<path d="M69 37H65V41H69V37Z" fill="black"/>
<path d="M77 37H73V41H77V37Z" fill="black"/>
<path d="M81 37H77V41H81V37Z" fill="black"/>
<path d="M89 37H85V41H89V37Z" fill="black"/>
<path d="M97 37H93V41H97V37Z" fill="black"/>
<path d="M101 37H97V41H101V37Z" fill="black"/>
<path d="M9 41H5V45H9V41Z" fill="black"/>
<path d="M13 41H9V45H13V41Z" fill="black"/>
<path d="M21 41H17V45H21V41Z" fill="black"/>
<path d="M25 41H21V45H25V41Z" fill="black"/>
<path d="M29 41H25V45H29V41Z" fill="black"/>
<path d="M33 41H29V45H33V41Z" fill="black"/>
<path d="M65 41H61V45H65V41Z" fill="black"/>
<path d="M69 41H65V45H69V41Z" fill="black"/>
<path d="M77 41H73V45H77V41Z" fill="black"/>
<path d="M81 41H77V45H81V41Z" fill="black"/>
<path d="M89 41H85V45H89V41Z" fill="black"/>
<path d="M93 41H89V45H93V41Z" fill="black"/>
<path d="M101 41H97V45H101V41Z" fill="black"/>
<path d="M9 45H5V49H9V45Z" fill="black"/>
<path d="M17 45H13V49H17V45Z" fill="black"/>
<path d="M21 45H17V49H21V45Z" fill="black"/>
<path d="M33 45H29V49H33V45Z" fill="black"/>
<path d="M41 45H37V49H41V45Z" fill="black"/>
<path d="M45 45H41V49H45V45Z" fill="black"/>
<path d="M49 45H45V49H49V45Z" fill="black"/>
<path d="M61 45H57V49H61V45Z" fill="black"/>
<path d="M65 45H61V49H65V45Z" fill="black"/>
<path d="M69 45H65V49H69V45Z" fill="black"/>
<path d="M73 45H69V49H73V45Z" fill="black"/>
<path d="M81 45H77V49H81V45Z" fill="black"/>
<path d="M85 45H81V49H85V45Z" fill="black"/>
<path d="M89 45H85V49H89V45Z" fill="black"/>
<path d="M9 49H5V53H9V49Z" fill="black"/>
<path d="M13 49H9V53H13V49Z" fill="black"/>
<path d="M17 49H13V53H17V49Z" fill="black"/>
<path d="M29 49H25V53H29V49Z" fill="black"/>
<path d="M33 49H29V53H33V49Z" fill="black"/>
<path d="M37 49H33V53H37V49Z" fill="black"/>
<path d="M41 49H37V53H41V49Z" fill="black"/>
<path d="M45 49H41V53H45V49Z" fill="black"/>
<path d="M69 49H65V53H69V49Z" fill="black"/>
<path d="M77 49H73V53H77V49Z" fill="black"/>
<path d="M81 49H77V53H81V49Z" fill="black"/>
<path d="M101 49H97V53H101V49Z" fill="black"/>
<path d="M17 53H13V57H17V53Z" fill="black"/>
<path d="M21 53H17V57H21V53Z" fill="black"/>
<path d="M33 53H29V57H33V53Z" fill="black"/>
<path d="M41 53H37V57H41V53Z" fill="black"/>
<path d="M45 53H41V57H45V53Z" fill="black"/>
<path d="M61 53H57V57H61V53Z" fill="black"/>
<path d="M65 53H61V57H65V53Z" fill="black"/>
<path d="M77 53H73V57H77V53Z" fill="black"/>
<path d="M81 53H77V57H81V53Z" fill="black"/>
<path d="M97 53H93V57H97V53Z" fill="black"/>
<path d="M101 53H97V57H101V53Z" fill="black"/>
<path d="M5 57H1V61H5V57Z" fill="black"/>
<path d="M9 57H5V61H9V57Z" fill="black"/>
<path d="M21 57H17V61H21V57Z" fill="black"/>
<path d="M29 57H25V61H29V57Z" fill="black"/>
<path d="M33 57H29V61H33V57Z" fill="black"/>
<path d="M37 57H33V61H37V57Z" fill="black"/>
<path d="M41 57H37V61H41V57Z" fill="black"/>
<path d="M45 57H41V61H45V57Z" fill="black"/>
<path d="M49 57H45V61H49V57Z" fill="black"/>
<path d="M57 57H53V61H57V57Z" fill="black"/>
<path d="M61 57H57V61H61V57Z" fill="black"/>
<path d="M65 57H61V61H65V57Z" fill="black"/>
<path d="M89 57H85V61H89V57Z" fill="black"/>
<path d="M93 57H89V61H93V57Z" fill="black"/>
<path d="M101 57H97V61H101V57Z" fill="black"/>
<path d="M13 61H9V65H13V61Z" fill="black"/>
<path d="M21 61H17V65H21V61Z" fill="black"/>
<path d="M33 61H29V65H33V61Z" fill="black"/>
<path d="M45 61H41V65H45V61Z" fill="black"/>
<path d="M61 61H57V65H61V61Z" fill="black"/>
<path d="M65 61H61V65H65V61Z" fill="black"/>
<path d="M81 61H77V65H81V61Z" fill="black"/>
<path d="M85 61H81V65H85V61Z" fill="black"/>
<path d="M5 65H1V69H5V65Z" fill="black"/>
<path d="M9 65H5V69H9V65Z" fill="black"/>
<path d="M13 65H9V69H13V65Z" fill="black"/>
<path d="M17 65H13V69H17V65Z" fill="black"/>
<path d="M21 65H17V69H21V65Z" fill="black"/>
<path d="M29 65H25V69H29V65Z" fill="black"/>
<path d="M33 65H29V69H33V65Z" fill="black"/>
<path d="M37 65H33V69H37V65Z" fill="black"/>
<path d="M41 65H37V69H41V65Z" fill="black"/>
<path d="M49 65H45V69H49V65Z" fill="black"/>
<path d="M53 65H49V69H53V65Z" fill="black"/>
<path d="M61 65H57V69H61V65Z" fill="black"/>
<path d="M69 65H65V69H69V65Z" fill="black"/>
<path d="M73 65H69V69H73V65Z" fill="black"/>
<path d="M77 65H73V69H77V65Z" fill="black"/>
<path d="M81 65H77V69H81V65Z" fill="black"/>
<path d="M85 65H81V69H85V65Z" fill="black"/>
<path d="M97 65H93V69H97V65Z" fill="black"/>
<path d="M37 69H33V73H37V69Z" fill="black"/>
<path d="M41 69H37V73H41V69Z" fill="black"/>
<path d="M53 69H49V73H53V69Z" fill="black"/>
<path d="M61 69H57V73H61V69Z" fill="black"/>
<path d="M69 69H65V73H69V69Z" fill="black"/>
<path d="M85 69H81V73H85V69Z" fill="black"/>
<path d="M93 69H89V73H93V69Z" fill="black"/>
<path d="M101 69H97V73H101V69Z" fill="black"/>
<path d="M37 73H33V77H37V73Z" fill="black"/>
<path d="M41 73H37V77H41V73Z" fill="black"/>
<path d="M45 73H41V77H45V73Z" fill="black"/>
<path d="M53 73H49V77H53V73Z" fill="black"/>
<path d="M69 73H65V77H69V73Z" fill="black"/>
<path d="M77 73H73V77H77V73Z" fill="black"/>
<path d="M85 73H81V77H85V73Z" fill="black"/>
<path d="M89 73H85V77H89V73Z" fill="black"/>
<path d="M101 73H97V77H101V73Z" fill="black"/>
<path d="M49 77H45V81H49V77Z" fill="black"/>
<path d="M53 77H49V81H53V77Z" fill="black"/>
<path d="M61 77H57V81H61V77Z" fill="black"/>
<path d="M65 77H61V81H65V77Z" fill="black"/>
<path d="M69 77H65V81H69V77Z" fill="black"/>
<path d="M85 77H81V81H85V77Z" fill="black"/>
<path d="M41 81H37V85H41V81Z" fill="black"/>
<path d="M45 81H41V85H45V81Z" fill="black"/>
<path d="M53 81H49V85H53V81Z" fill="black"/>
<path d="M65 81H61V85H65V81Z" fill="black"/>
<path d="M69 81H65V85H69V81Z" fill="black"/>
<path d="M73 81H69V85H73V81Z" fill="black"/>
<path d="M77 81H73V85H77V81Z" fill="black"/>
<path d="M81 81H77V85H81V81Z" fill="black"/>
<path d="M85 81H81V85H85V81Z" fill="black"/>
<path d="M89 81H85V85H89V81Z" fill="black"/>
<path d="M97 81H93V85H97V81Z" fill="black"/>
<path d="M45 85H41V89H45V85Z" fill="black"/>
<path d="M61 85H57V89H61V85Z" fill="black"/>
<path d="M69 85H65V89H69V85Z" fill="black"/>
<path d="M73 85H69V89H73V85Z" fill="black"/>
<path d="M85 85H81V89H85V85Z" fill="black"/>
<path d="M89 85H85V89H89V85Z" fill="black"/>
<path d="M93 85H89V89H93V85Z" fill="black"/>
<path d="M97 85H93V89H97V85Z" fill="black"/>
<path d="M37 89H33V93H37V89Z" fill="black"/>
<path d="M41 89H37V93H41V89Z" fill="black"/>
<path d="M49 89H45V93H49V89Z" fill="black"/>
<path d="M73 89H69V93H73V89Z" fill="black"/>
<path d="M85 89H81V93H85V89Z" fill="black"/>
<path d="M97 89H93V93H97V89Z" fill="black"/>
<path d="M101 89H97V93H101V89Z" fill="black"/>
<path d="M45 93H41V97H45V93Z" fill="black"/>
<path d="M49 93H45V97H49V93Z" fill="black"/>
<path d="M53 93H49V97H53V93Z" fill="black"/>
<path d="M69 93H65V97H69V93Z" fill="black"/>
<path d="M77 93H73V97H77V93Z" fill="black"/>
<path d="M81 93H77V97H81V93Z" fill="black"/>
<path d="M85 93H81V97H85V93Z" fill="black"/>
<path d="M37 97H33V101H37V97Z" fill="black"/>
<path d="M45 97H41V101H45V97Z" fill="black"/>
<path d="M49 97H45V101H49V97Z" fill="black"/>
<path d="M69 97H65V101H69V97Z" fill="black"/>
<path d="M77 97H73V101H77V97Z" fill="black"/>
<path d="M89 97H85V101H89V97Z" fill="black"/>
<path d="M101 97H97V101H101V97Z" fill="black"/>
<path d="M24.8 1H5.2C2.8804 1 1 2.8804 1 5.2V24.8V29H5.2H24.8H29V24.8V5.2V1H24.8ZM24.8 24.8H5.2V5.2H24.8V24.8Z" fill="black"/>
<path d="M96.8 1H77.2H73V5.2V24.8V29H77.2H96.8H101V24.8V5.2C101 2.8804 99.1196 1 96.8 1ZM96.8 24.8H77.2V5.2H96.8V24.8Z" fill="black"/>
<path d="M24.8 73H5.2H1V77.2V96.8C1 99.1196 2.8804 101 5.2 101H24.8H29V96.8V77.2V73H24.8ZM24.8 96.8H5.2V77.2H24.8V96.8Z" fill="black"/>
<path d="M21 9H9V21H21V9Z" fill="black"/>
<path d="M93 9H81V21H93V9Z" fill="black"/>
<path d="M21 81H9V93H21V81Z" fill="black"/>
</g>
<rect x="1" y="1" width="100" height="100" stroke="#BEBEB6" stroke-opacity="0.2"/>
<defs>
<clipPath id="clip0_31_1762">
<rect x="1" y="1" width="100" height="100" fill="white"/>
</clipPath>
</defs>
</svg>
