<svg width="28" height="28" viewBox="0 0 28 28" fill="none" xmlns="http://www.w3.org/2000/svg">
<path d="M3.5 25.6667H24.5" stroke="#FF7348" stroke-width="1.5" stroke-linecap="round" stroke-linejoin="round"/>
<path d="M6.53331 9.77669H4.66667C4.025 9.77669 3.5 10.3017 3.5 10.9434V21C3.5 21.6417 4.025 22.1667 4.66667 22.1667H6.53331C7.17497 22.1667 7.69997 21.6417 7.69997 21V10.9434C7.69997 10.3017 7.17497 9.77669 6.53331 9.77669Z" stroke="#FF7348" stroke-width="1.5" stroke-linecap="round" stroke-linejoin="round"/>
<path d="M14.9332 6.05502H13.0666C12.4249 6.05502 11.8999 6.58002 11.8999 7.22169V21C11.8999 21.6417 12.4249 22.1667 13.0666 22.1667H14.9332C15.5749 22.1667 16.0999 21.6417 16.0999 21V7.22169C16.0999 6.58002 15.5749 6.05502 14.9332 6.05502Z" stroke="#FF7348" stroke-width="1.5" stroke-linecap="round" stroke-linejoin="round"/>
<path d="M23.3331 2.33334H21.4665C20.8248 2.33334 20.2998 2.85834 20.2998 3.50001V21C20.2998 21.6417 20.8248 22.1667 21.4665 22.1667H23.3331C23.9748 22.1667 24.4998 21.6417 24.4998 21V3.50001C24.4998 2.85834 23.9748 2.33334 23.3331 2.33334Z" stroke="#FF7348" stroke-width="1.5" stroke-linecap="round" stroke-linejoin="round"/>
</svg>
