<svg width="200" height="200" viewBox="0 0 200 200" fill="none" xmlns="http://www.w3.org/2000/svg">
<g clip-path="url(#clip0_301_2431)">
<path d="M11.8496 157.728C4.56772 153.524 0.951366 148.005 1.00049 142.495C1.04896 137.059 4.66532 131.631 11.8496 127.483L36.8178 113.068L73.8069 91.712C88.2729 83.36 111.727 83.36 126.193 91.712L170.714 117.416L188.15 127.483C195.335 131.631 198.951 137.059 199 142.495C199.049 148.005 195.432 153.524 188.15 157.728L126.193 193.499C111.727 201.851 88.2729 201.851 73.8069 193.499L11.8496 157.728Z" fill="#C4C4C4"/>
<path d="M11.8496 157.728C4.56772 153.524 0.951366 148.005 1.00049 142.495C1.04896 137.059 4.66532 131.631 11.8496 127.483L36.8178 113.068L73.8069 91.712C88.2729 83.36 111.727 83.36 126.193 91.712L170.714 117.416L188.15 127.483C195.335 131.631 198.951 137.059 199 142.495C199.049 148.005 195.432 153.524 188.15 157.728L126.193 193.499C111.727 201.851 88.2729 201.851 73.8069 193.499L11.8496 157.728Z" fill="white"/>
<path d="M11.8496 157.728C4.56772 153.524 0.951366 148.005 1.00049 142.495C1.04896 137.059 4.66532 131.631 11.8496 127.483L36.8178 113.068L73.8069 91.712C88.2729 83.36 111.727 83.36 126.193 91.712L170.714 117.416L188.15 127.483C195.335 131.631 198.951 137.059 199 142.495C199.049 148.005 195.432 153.524 188.15 157.728L126.193 193.499C111.727 201.851 88.2729 201.851 73.8069 193.499L11.8496 157.728Z" fill="url(#paint0_linear_301_2431)" fill-opacity="0.3"/>
<path d="M1.00049 142.495C1.04896 137.059 4.66532 131.631 11.8496 127.483L36.8178 113.068L1.00049 125.345V142.495Z" fill="#C4C4C4"/>
<path d="M1.00049 142.495C1.04896 137.059 4.66532 131.631 11.8496 127.483L36.8178 113.068L1.00049 125.345V142.495Z" fill="white"/>
<path d="M1.00049 142.495C1.04896 137.059 4.66532 131.631 11.8496 127.483L36.8178 113.068L1.00049 125.345V142.495Z" fill="url(#paint1_linear_301_2431)" fill-opacity="0.3"/>
<path d="M188.15 127.483C195.335 131.631 198.951 137.059 199 142.495V125.345L170.714 117.416L188.15 127.483Z" fill="#C4C4C4"/>
<path d="M188.15 127.483C195.335 131.631 198.951 137.059 199 142.495V125.345L170.714 117.416L188.15 127.483Z" fill="white"/>
<path d="M188.15 127.483C195.335 131.631 198.951 137.059 199 142.495V125.345L170.714 117.416L188.15 127.483Z" fill="url(#paint2_linear_301_2431)" fill-opacity="0.3"/>
<path d="M11.8496 140.622C-2.61652 132.27 -2.61652 118.729 11.8496 110.377L73.8069 74.6058C88.2729 66.2538 111.727 66.2538 126.193 74.6058L188.15 110.377C202.617 118.729 202.617 132.27 188.15 140.622L126.193 176.393C111.727 184.745 88.2729 184.745 73.8069 176.393L11.8496 140.622Z" fill="#C4C4C4"/>
<path d="M11.8496 140.622C-2.61652 132.27 -2.61652 118.729 11.8496 110.377L73.8069 74.6058C88.2729 66.2538 111.727 66.2538 126.193 74.6058L188.15 110.377C202.617 118.729 202.617 132.27 188.15 140.622L126.193 176.393C111.727 184.745 88.2729 184.745 73.8069 176.393L11.8496 140.622Z" fill="white"/>
<path d="M11.8496 140.622C-2.61652 132.27 -2.61652 118.729 11.8496 110.377L73.8069 74.6058C88.2729 66.2538 111.727 66.2538 126.193 74.6058L188.15 110.377C202.617 118.729 202.617 132.27 188.15 140.622L126.193 176.393C111.727 184.745 88.2729 184.745 73.8069 176.393L11.8496 140.622Z" fill="url(#paint3_linear_301_2431)" fill-opacity="0.15"/>
<g filter="url(#filter0_f_301_2431)">
<rect width="88.2404" height="31.1321" rx="15.5661" transform="matrix(0.866025 -0.5 0.866025 0.5 48 136.955)" fill="black" fill-opacity="0.12"/>
</g>
<path d="M87.3608 24.0147C88.5332 20.7308 91.5997 18.583 93.3205 19.4418C93.36 19.4615 93.3987 19.4828 93.4368 19.5056C93.6792 19.6516 93.8913 19.8629 94.0629 20.1453L104.278 36.9604C104.821 37.8558 105.872 38.0877 107.088 37.5808L129.937 28.0545C130.774 27.7053 131.474 27.7078 132.004 27.9703C132.06 27.998 132.114 28.0286 132.166 28.062C133.425 28.8698 133.552 31.3095 132.004 33.8579L120.177 53.3301L115.477 61.0679C114.595 62.5192 114.193 64.1096 114.401 65.3206L118.3 88.0244C118.824 91.073 115.619 95.4784 112.878 95.4788L92.4512 95.482C91.3623 95.4822 90.0613 96.2333 88.9724 97.4905L68.5459 121.074C66.9647 122.899 65.2294 123.438 64.1442 122.865C63.3479 122.445 62.9016 121.427 63.1232 119.881L67.0229 92.6743C67.2309 91.2231 66.8286 90.0972 65.9471 89.6638L62.6127 88.0244L49.4198 81.5378C47.2015 80.4472 48.4227 75.6083 51.4868 73.3477L74.3355 56.4905C75.5514 55.5935 76.6022 54.1482 77.1461 52.6248L87.3608 24.0147Z" fill="#FFD65F"/>
<path d="M87.3608 24.0147C88.5332 20.7308 91.5997 18.583 93.3205 19.4418C93.36 19.4615 93.3987 19.4828 93.4368 19.5056C93.6792 19.6516 93.8913 19.8629 94.0629 20.1453L104.278 36.9604C104.821 37.8558 105.872 38.0877 107.088 37.5808L129.937 28.0545C130.774 27.7053 131.474 27.7078 132.004 27.9703C132.06 27.998 132.114 28.0286 132.166 28.062C133.425 28.8698 133.552 31.3095 132.004 33.8579L120.177 53.3301L115.477 61.0679C114.595 62.5192 114.193 64.1096 114.401 65.3206L118.3 88.0244C118.824 91.073 115.619 95.4784 112.878 95.4788L92.4512 95.482C91.3623 95.4822 90.0613 96.2333 88.9724 97.4905L68.5459 121.074C66.9647 122.899 65.2294 123.438 64.1442 122.865C63.3479 122.445 62.9016 121.427 63.1232 119.881L67.0229 92.6743C67.2309 91.2231 66.8286 90.0972 65.9471 89.6638L62.6127 88.0244L49.4198 81.5378C47.2015 80.4472 48.4227 75.6083 51.4868 73.3477L74.3355 56.4905C75.5514 55.5935 76.6022 54.1482 77.1461 52.6248L87.3608 24.0147Z" fill="white"/>
<path d="M87.3608 24.0147C88.5332 20.7308 91.5997 18.583 93.3205 19.4418C93.36 19.4615 93.3987 19.4828 93.4368 19.5056C93.6792 19.6516 93.8913 19.8629 94.0629 20.1453L104.278 36.9604C104.821 37.8558 105.872 38.0877 107.088 37.5808L129.937 28.0545C130.774 27.7053 131.474 27.7078 132.004 27.9703C132.06 27.998 132.114 28.0286 132.166 28.062C133.425 28.8698 133.552 31.3095 132.004 33.8579L120.177 53.3301L115.477 61.0679C114.595 62.5192 114.193 64.1096 114.401 65.3206L118.3 88.0244C118.824 91.073 115.619 95.4784 112.878 95.4788L92.4512 95.482C91.3623 95.4822 90.0613 96.2333 88.9724 97.4905L68.5459 121.074C66.9647 122.899 65.2294 123.438 64.1442 122.865C63.3479 122.445 62.9016 121.427 63.1232 119.881L67.0229 92.6743C67.2309 91.2231 66.8286 90.0972 65.9471 89.6638L62.6127 88.0244L49.4198 81.5378C47.2015 80.4472 48.4227 75.6083 51.4868 73.3477L74.3355 56.4905C75.5514 55.5935 76.6022 54.1482 77.1461 52.6248L87.3608 24.0147Z" fill="url(#paint4_linear_301_2431)" fill-opacity="0.8"/>
<path d="M49.4198 81.5378C49.8262 81.7377 58.2996 86.5465 62.4854 88.9259L62.6127 88.0244L49.4198 81.5378Z" fill="#FFD65F"/>
<path d="M49.4198 81.5378C49.8262 81.7377 58.2996 86.5465 62.4854 88.9259L62.6127 88.0244L49.4198 81.5378Z" fill="white"/>
<path d="M49.4198 81.5378C49.8262 81.7377 58.2996 86.5465 62.4854 88.9259L62.6127 88.0244L49.4198 81.5378Z" fill="url(#paint5_linear_301_2431)" fill-opacity="0.8"/>
<path d="M88.9724 97.4905L68.5459 121.074C66.9647 122.899 65.2294 123.438 64.1442 122.865L77.5736 130.472L88.9724 97.4905Z" fill="#FFD65F"/>
<path d="M88.9724 97.4905L68.5459 121.074C66.9647 122.899 65.2294 123.438 64.1442 122.865L77.5736 130.472L88.9724 97.4905Z" fill="white"/>
<path d="M88.9724 97.4905L68.5459 121.074C66.9647 122.899 65.2294 123.438 64.1442 122.865L77.5736 130.472L88.9724 97.4905Z" fill="url(#paint6_linear_301_2431)" fill-opacity="0.8"/>
<path d="M132.166 28.062C133.425 28.8698 133.552 31.3095 132.004 33.8579L120.177 53.3301L145.531 35.6431C141.397 33.298 133.405 28.7644 132.166 28.062Z" fill="#FFD65F"/>
<path d="M132.166 28.062C133.425 28.8698 133.552 31.3095 132.004 33.8579L120.177 53.3301L145.531 35.6431C141.397 33.298 133.405 28.7644 132.166 28.062Z" fill="white"/>
<path d="M132.166 28.062C133.425 28.8698 133.552 31.3095 132.004 33.8579L120.177 53.3301L145.531 35.6431C141.397 33.298 133.405 28.7644 132.166 28.062Z" fill="url(#paint7_linear_301_2431)" fill-opacity="0.8"/>
<path d="M94.0629 20.1453L104.278 36.9604C104.821 37.8558 105.872 38.0877 107.088 37.5808L107.088 27.005L93.4368 19.5056C93.6792 19.6516 93.8913 19.8629 94.0629 20.1453Z" fill="#FFD65F"/>
<path d="M94.0629 20.1453L104.278 36.9604C104.821 37.8558 105.872 38.0877 107.088 37.5808L107.088 27.005L93.4368 19.5056C93.6792 19.6516 93.8913 19.8629 94.0629 20.1453Z" fill="white"/>
<path d="M94.0629 20.1453L104.278 36.9604C104.821 37.8558 105.872 38.0877 107.088 37.5808L107.088 27.005L93.4368 19.5056C93.6792 19.6516 93.8913 19.8629 94.0629 20.1453Z" fill="url(#paint8_linear_301_2431)" fill-opacity="0.8"/>
<path d="M100.575 31.3675C101.946 27.5278 105.906 25.2413 107.277 27.498L117.491 44.3132C118.035 45.2086 119.086 45.4405 120.302 44.9336L143.151 35.4073C146.215 34.1298 147.436 37.5586 145.218 41.2107L128.69 68.4207C127.809 69.8719 127.407 71.4624 127.615 72.6734L131.514 95.3772C132.038 98.4257 128.833 102.831 126.092 102.832L105.665 102.835C104.576 102.835 103.275 103.586 102.186 104.843L81.7598 128.427C79.0182 131.592 75.8134 130.887 76.3371 127.234L80.2368 100.027C80.4448 98.5758 80.0424 97.45 79.161 97.0166L62.6337 88.8906C60.4154 87.8 61.6366 82.9611 64.7006 80.7005L87.5494 63.8433C88.7652 62.9463 89.8161 61.501 90.3599 59.9776L100.575 31.3675Z" fill="#FFD65F"/>
<path d="M100.575 31.3675C101.946 27.5278 105.906 25.2413 107.277 27.498L117.491 44.3132C118.035 45.2086 119.086 45.4405 120.302 44.9336L143.151 35.4073C146.215 34.1298 147.436 37.5586 145.218 41.2107L128.69 68.4207C127.809 69.8719 127.407 71.4624 127.615 72.6734L131.514 95.3772C132.038 98.4257 128.833 102.831 126.092 102.832L105.665 102.835C104.576 102.835 103.275 103.586 102.186 104.843L81.7598 128.427C79.0182 131.592 75.8134 130.887 76.3371 127.234L80.2368 100.027C80.4448 98.5758 80.0424 97.45 79.161 97.0166L62.6337 88.8906C60.4154 87.8 61.6366 82.9611 64.7006 80.7005L87.5494 63.8433C88.7652 62.9463 89.8161 61.501 90.3599 59.9776L100.575 31.3675Z" fill="white"/>
<path d="M100.575 31.3675C101.946 27.5278 105.906 25.2413 107.277 27.498L117.491 44.3132C118.035 45.2086 119.086 45.4405 120.302 44.9336L143.151 35.4073C146.215 34.1298 147.436 37.5586 145.218 41.2107L128.69 68.4207C127.809 69.8719 127.407 71.4624 127.615 72.6734L131.514 95.3772C132.038 98.4257 128.833 102.831 126.092 102.832L105.665 102.835C104.576 102.835 103.275 103.586 102.186 104.843L81.7598 128.427C79.0182 131.592 75.8134 130.887 76.3371 127.234L80.2368 100.027C80.4448 98.5758 80.0424 97.45 79.161 97.0166L62.6337 88.8906C60.4154 87.8 61.6366 82.9611 64.7006 80.7005L87.5494 63.8433C88.7652 62.9463 89.8161 61.501 90.3599 59.9776L100.575 31.3675Z" fill="url(#paint9_linear_301_2431)"/>
</g>
<defs>
<filter id="filter0_f_301_2431" x="35.897" y="77.394" width="127.586" height="90.5679" filterUnits="userSpaceOnUse" color-interpolation-filters="sRGB">
<feFlood flood-opacity="0" result="BackgroundImageFix"/>
<feBlend mode="normal" in="SourceGraphic" in2="BackgroundImageFix" result="shape"/>
<feGaussianBlur stdDeviation="10" result="effect1_foregroundBlur_301_2431"/>
</filter>
<linearGradient id="paint0_linear_301_2431" x1="54.9091" y1="184.286" x2="93.94" y2="226.599" gradientUnits="userSpaceOnUse">
<stop stop-color="#CCD1D3" stop-opacity="0.36"/>
<stop offset="1" stop-color="#C3C6CA"/>
</linearGradient>
<linearGradient id="paint1_linear_301_2431" x1="54.9091" y1="184.286" x2="93.94" y2="226.599" gradientUnits="userSpaceOnUse">
<stop stop-color="#CCD1D3" stop-opacity="0.36"/>
<stop offset="1" stop-color="#C3C6CA"/>
</linearGradient>
<linearGradient id="paint2_linear_301_2431" x1="54.9091" y1="184.286" x2="93.94" y2="226.599" gradientUnits="userSpaceOnUse">
<stop stop-color="#CCD1D3" stop-opacity="0.36"/>
<stop offset="1" stop-color="#C3C6CA"/>
</linearGradient>
<linearGradient id="paint3_linear_301_2431" x1="1.86168" y1="109.935" x2="159.664" y2="19.7058" gradientUnits="userSpaceOnUse">
<stop stop-color="#BDC6CB" stop-opacity="0.36"/>
<stop offset="1" stop-color="#B7BEC8"/>
</linearGradient>
<linearGradient id="paint4_linear_301_2431" x1="79.8721" y1="51.0457" x2="93.6228" y2="136.864" gradientUnits="userSpaceOnUse">
<stop stop-color="#FFD977"/>
<stop offset="1" stop-color="#FF8D07"/>
</linearGradient>
<linearGradient id="paint5_linear_301_2431" x1="79.8721" y1="51.0457" x2="93.6228" y2="136.864" gradientUnits="userSpaceOnUse">
<stop stop-color="#FFD977"/>
<stop offset="1" stop-color="#FF8D07"/>
</linearGradient>
<linearGradient id="paint6_linear_301_2431" x1="79.8721" y1="51.0457" x2="93.6228" y2="136.864" gradientUnits="userSpaceOnUse">
<stop stop-color="#FFD977"/>
<stop offset="1" stop-color="#FF8D07"/>
</linearGradient>
<linearGradient id="paint7_linear_301_2431" x1="79.8721" y1="51.0457" x2="93.6228" y2="136.864" gradientUnits="userSpaceOnUse">
<stop stop-color="#FFD977"/>
<stop offset="1" stop-color="#FF8D07"/>
</linearGradient>
<linearGradient id="paint8_linear_301_2431" x1="79.8721" y1="51.0457" x2="93.6228" y2="136.864" gradientUnits="userSpaceOnUse">
<stop stop-color="#FFD977"/>
<stop offset="1" stop-color="#FF8D07"/>
</linearGradient>
<linearGradient id="paint9_linear_301_2431" x1="152.247" y1="26.4185" x2="7.53327" y2="116.794" gradientUnits="userSpaceOnUse">
<stop stop-color="#FFD777"/>
<stop offset="1" stop-color="#FF8D07"/>
</linearGradient>
<clipPath id="clip0_301_2431">
<rect width="200" height="200" fill="white"/>
</clipPath>
</defs>
</svg>
