<svg width="42" height="42" viewBox="0 0 42 42" fill="none" xmlns="http://www.w3.org/2000/svg">
<path d="M40.215 9.345C39.0757 7.3185 37.8394 6.94575 35.322 6.804C32.8073 6.63338 26.4836 6.5625 21.0052 6.5625C15.5164 6.5625 9.19012 6.63338 6.678 6.80138C4.16587 6.94575 2.92687 7.31587 1.77713 9.345C0.60375 11.3689 0 14.8549 0 20.9921C0 20.9974 0 21 0 21C0 21.0052 0 21.0079 0 21.0079V21.0131C0 27.1241 0.60375 30.6364 1.77713 32.6392C2.92687 34.6658 4.16325 35.0333 6.67537 35.2039C9.19012 35.3509 15.5164 35.4375 21.0052 35.4375C26.4836 35.4375 32.8073 35.3509 35.3246 35.2065C37.842 35.0359 39.0784 34.6684 40.2176 32.6419C41.4015 30.639 42 27.1267 42 21.0157C42 21.0157 42 21.0079 42 21.0026C42 21.0026 42 20.9974 42 20.9948C42 14.8549 41.4015 11.3689 40.215 9.345ZM15.75 28.875V13.125L28.875 21L15.75 28.875Z" fill="#ff0000"/>
</svg>
